<svg width="1152" height="1152" viewBox="0 0 1152 1152" xmlns="http://www.w3.org/2000/svg">
    <!-- Owl only, transparent background, centered for Android 12+ splash icon -->
    <!-- translate(576, 587) centers the owl vertically given its local bounds (-130 to +120) -->
    <g transform="translate(576, 587) scale(2.2)">
        <ellipse cx="0" cy="50" rx="100" ry="90" fill="#7A4A2B" />
        <ellipse cx="0" cy="72" rx="58" ry="55" fill="#FBF6EC" />
        <path d="M -90 30 Q -110 60, -100 105 Q -85 120, -60 105 Q -80 80, -85 45 Z" fill="#5A3520" />
        <path d="M 90 30 Q 110 60, 100 105 Q 85 120, 60 105 Q 80 80, 85 45 Z" fill="#5A3520" />
        <ellipse cx="0" cy="-15" rx="90" ry="75" fill="#7A4A2B" />
        <path d="M -55 -73 L -80 -130 L -35 -94 Z" fill="#5A3520" />
        <path d="M 55 -73 L 80 -130 L 35 -94 Z" fill="#5A3520" />
        <ellipse cx="0" cy="-10" rx="68" ry="60" fill="#FBF6EC" />
        <circle cx="-28" cy="-20" r="20" fill="#FBF6EC" stroke="#3A2515" stroke-width="2.5" />
        <circle cx="28" cy="-20" r="20" fill="#FBF6EC" stroke="#3A2515" stroke-width="2.5" />
        <circle cx="-28" cy="-20" r="13" fill="#F5C842" />
        <circle cx="28" cy="-20" r="13" fill="#F5C842" />
        <circle cx="-26" cy="-19" r="6.5" fill="#2A1A0F" />
        <circle cx="30" cy="-19" r="6.5" fill="#2A1A0F" />
        <circle cx="-29" cy="-22" r="2" fill="#FBF6EC" />
        <circle cx="27" cy="-22" r="2" fill="#FBF6EC" />
        <path d="M 0 8 L -12 24 L 12 24 Z" fill="#E07A3C" />
    </g>
</svg>
